<svg xmlns="http://www.w3.org/2000/svg" viewBox="0 0 1440 2560">
<defs>
 <linearGradient id="sky" x1="0" y1="0" x2="0" y2="1"><stop stop-color="#91cbd7"/><stop offset=".48" stop-color="#d9e8df"/><stop offset="1" stop-color="#e7d6b9"/></linearGradient>
 <linearGradient id="sea" x1="0" y1="0" x2="0" y2="1"><stop stop-color="#8fb9b8"/><stop offset="1" stop-color="#416e72"/></linearGradient>
 <radialGradient id="sun"><stop stop-color="#fff5c9"/><stop offset="1" stop-color="#f2c982" stop-opacity="0"/></radialGradient>
</defs>
<rect width="1440" height="2560" fill="url(#sky)"/>
<circle cx="1080" cy="560" r="300" fill="url(#sun)"/>
<path d="M0 1410 210 1120 380 1270 570 930 770 1240 970 1010 1190 1300 1440 1080V1780H0Z" fill="#759a94" opacity=".55"/>
<path d="M0 1580 240 1330 430 1510 690 1160 900 1480 1160 1250 1440 1510V1900H0Z" fill="#557d78" opacity=".8"/>
<path d="M0 1780 280 1530 500 1700 760 1450 980 1700 1210 1490 1440 1690V2040H0Z" fill="#365f5e"/>
<g fill="#eef2e8" opacity=".76">
 <ellipse cx="280" cy="1330" rx="430" ry="110"/><ellipse cx="720" cy="1430" rx="520" ry="120"/><ellipse cx="1230" cy="1320" rx="420" ry="105"/>
</g>
<path d="M0 1880 C260 1810 440 1930 690 1860s500-30 750 50v650H0Z" fill="url(#sea)"/>
<g fill="none" stroke="#d9ebe4" opacity=".45" stroke-width="8">
 <path d="M80 2080c250-55 460 60 720 0s410-30 570 10"/><path d="M20 2250c260-50 500 55 760 0s430-25 650 20"/><path d="M110 2410c220-40 440 45 680 0s390-20 560 15"/>
</g>
</svg>